<svg width="2500" height="2500" viewBox="0 0 2500 2500" fill="none" xmlns="http://www.w3.org/2000/svg">
<g filter="url(#filter0_i_12_2)">
<mask id="mask0_12_2" style="mask-type:alpha" maskUnits="userSpaceOnUse" x="600" y="54" width="1300" height="1500">
<path d="M1250 54L1899.52 429V1179L1250 1554L600.481 1179V429L1250 54Z" fill="#FFC20F"/>
</mask>
<g mask="url(#mask0_12_2)">
<path d="M1250 54L1899.52 429V1179L1250 1554L600.481 1179V429L1250 54Z" fill="#FFC20F"/>
<path d="M1250 304L1683.01 554V1054L1250 1304L816.987 1054V554L1250 304Z" fill="black"/>
<path d="M1250 554L1466.51 679V929L1250 1054L1033.49 929V679L1250 554Z" fill="#FFC20F"/>
<rect x="1033.5" y="928" width="216.5" height="387" fill="#FFC20F"/>
<rect x="817" y="1046" width="216" height="384" fill="black"/>
</g>
</g>
<path d="M513.828 1776H408.828V1903.2H519.228C541.228 1903.2 560.228 1899 576.228 1890.6C592.228 1881.8 600.228 1865 600.228 1840.2C601.028 1812.6 592.428 1795.2 574.428 1788C556.828 1780.4 536.628 1776.6 513.828 1776.6V1776ZM318.228 1699.2H515.028C515.428 1699.6 515.828 1699.8 516.228 1699.8C517.028 1699.8 517.628 1699.8 518.028 1699.8C525.628 1699.8 533.228 1699.8 540.828 1699.8C548.428 1699.8 556.028 1700.2 563.628 1701C577.228 1701.8 590.628 1703.8 603.828 1707C617.428 1709.8 630.028 1714.6 641.628 1721.4C662.828 1733.8 677.828 1750.8 686.628 1772.4C695.828 1794 700.628 1816.6 701.028 1840.2C701.428 1861.8 697.628 1882.6 689.628 1902.6C682.028 1922.6 669.228 1939.2 651.228 1952.4C636.028 1963.2 619.428 1970.4 601.428 1974C583.828 1977.2 565.828 1979.2 547.428 1980C542.628 1980 537.828 1980 533.028 1980C528.228 1980 523.428 1980 518.628 1980L408.828 1979.4V2130H318.228V1699.2ZM841.541 1849.8C838.741 1860.6 836.741 1871.6 835.541 1882.8C834.341 1893.6 833.741 1904.4 833.741 1915.2C833.741 1926.4 834.341 1937.6 835.541 1948.8C837.141 1959.6 839.141 1970.2 841.541 1980.6C845.941 1999 853.141 2015 863.141 2028.6C873.541 2042.2 887.941 2052.2 906.341 2058.6C913.141 2061 920.341 2062.8 927.941 2064C935.541 2065.2 943.141 2065.8 950.741 2065.8C958.341 2065.8 965.941 2065.2 973.541 2064C981.141 2062.8 988.341 2061 995.141 2058.6C1013.54 2052.2 1027.94 2042.2 1038.34 2028.6C1048.74 2015 1055.94 1999 1059.94 1980.6C1062.34 1970.2 1064.14 1959.6 1065.34 1948.8C1066.94 1937.6 1067.74 1926.4 1067.74 1915.2C1067.74 1904.4 1066.94 1893.6 1065.34 1882.8C1064.14 1871.6 1062.34 1860.8 1059.94 1850.4C1055.94 1832 1048.74 1816 1038.34 1802.4C1027.94 1788.4 1013.54 1778.4 995.141 1772.4C988.341 1770 981.141 1768.2 973.541 1767C965.941 1765.8 958.341 1765.2 950.741 1765.2C943.141 1765.2 935.541 1765.8 927.941 1767C920.341 1768.2 913.141 1770 906.341 1772.4C887.941 1778.8 873.741 1788.8 863.741 1802.4C853.741 1816 846.341 1832 841.541 1850.4V1849.8ZM747.941 1819.2C758.341 1787.6 773.541 1762 793.541 1742.4C813.941 1722.4 840.541 1708.2 873.341 1699.8C885.341 1697 897.741 1694.8 910.541 1693.2C923.341 1691.6 936.141 1690.8 948.941 1690.8C962.541 1690.4 976.341 1691 990.341 1692.6C1004.34 1694.2 1017.74 1696.8 1030.54 1700.4C1062.54 1708.4 1088.74 1722.4 1109.14 1742.4C1129.54 1762.4 1144.54 1788.2 1154.14 1819.8C1158.14 1834.2 1161.14 1849.4 1163.14 1865.4C1165.54 1881.4 1166.74 1897.4 1166.74 1913.4C1166.74 1930.6 1165.74 1947.4 1163.74 1963.8C1161.74 1980.2 1158.54 1995.8 1154.14 2010.6C1144.54 2043 1129.34 2069.2 1108.54 2089.2C1087.74 2108.8 1060.94 2122.4 1028.14 2130C1015.34 2133.2 1002.14 2135.4 988.541 2136.6C974.941 2138.2 961.141 2139 947.141 2139C934.741 2139 922.341 2138.2 909.941 2136.6C897.541 2135 885.341 2132.8 873.341 2130C840.941 2122.4 814.341 2108.8 793.541 2089.2C772.741 2069.2 757.541 2043 747.941 2010.6C743.941 1996.6 740.741 1981.4 738.341 1965C736.341 1948.6 735.341 1932 735.341 1915.2C735.341 1898.4 736.341 1881.8 738.341 1865.4C740.341 1848.6 743.541 1833.4 747.941 1819.8V1819.2ZM1323 2130H1228.2V1699.2H1323V2130ZM1776.37 1776H1552.57C1532.97 1776.4 1516.37 1780.6 1502.77 1788.6C1489.57 1796.2 1482.97 1811 1482.97 1833C1482.97 1849.8 1488.57 1861.8 1499.77 1869C1511.37 1876.2 1524.77 1879.8 1539.97 1879.8L1659.97 1879.2C1664.37 1879.6 1668.97 1879.8 1673.77 1879.8C1678.57 1879.8 1683.37 1880 1688.17 1880.4C1702.17 1881.2 1715.97 1883.6 1729.57 1887.6C1743.17 1891.2 1755.17 1898 1765.57 1908C1775.17 1916.8 1782.37 1927.4 1787.17 1939.8C1791.97 1952.2 1794.97 1965 1796.17 1978.2C1796.57 1982.2 1796.77 1986.2 1796.77 1990.2C1797.17 1993.8 1797.37 1997.6 1797.37 2001.6C1796.57 2051.6 1782.77 2085.6 1755.97 2103.6C1729.17 2121.2 1692.77 2130 1646.77 2130H1405.57V2053.2H1632.37C1652.37 2053.6 1669.57 2050.4 1683.97 2043.6C1698.77 2036.8 1704.77 2021.4 1701.97 1997.4C1699.97 1978.6 1692.97 1967 1680.97 1962.6C1668.97 1958.2 1654.77 1955.8 1638.37 1955.4L1531.57 1954.8C1487.17 1955.2 1451.97 1946.4 1425.97 1928.4C1400.37 1910 1387.77 1877 1388.17 1829.4C1388.97 1779.4 1402.77 1745.4 1429.57 1727.4C1456.77 1709 1493.37 1699.8 1539.37 1699.8L1776.37 1699.2V1776ZM2042.7 1774.2C2009.5 1774.6 1984.7 1783.6 1968.3 1801.2C1951.9 1818.4 1942.7 1843 1940.7 1875L2191.5 1874.4V1949.4H1940.1C1940.1 1964.6 1941.7 1979.2 1944.9 1993.2C1948.5 2007.2 1955.5 2020 1965.9 2031.6C1975.1 2042.4 1985.9 2049.2 1998.3 2052C2011.1 2054.4 2024.1 2055.6 2037.3 2055.6C2038.1 2055.6 2038.9 2055.6 2039.7 2055.6C2040.9 2055.6 2041.9 2055.6 2042.7 2055.6L2191.5 2055V2130H2038.5C2014.1 2130 1990.5 2127.8 1967.7 2123.4C1945.3 2119 1924.1 2108.8 1904.1 2092.8C1880.1 2073.2 1863.3 2049.4 1853.7 2021.4C1844.1 1993 1838.9 1964 1838.1 1934.4C1837.7 1928 1837.5 1921.8 1837.5 1915.8C1837.9 1909.8 1838.3 1903.8 1838.7 1897.8C1843.1 1829.8 1861.5 1779.8 1893.9 1747.8C1926.7 1715.8 1975.7 1699.8 2040.9 1699.8L2191.5 1699.2V1774.2H2042.7Z" fill="black"/>
<defs>
<filter id="filter0_i_12_2" x="600.481" y="54" width="1299.04" height="1504" filterUnits="userSpaceOnUse" color-interpolation-filters="sRGB">
<feFlood flood-opacity="0" result="BackgroundImageFix"/>
<feBlend mode="normal" in="SourceGraphic" in2="BackgroundImageFix" result="shape"/>
<feColorMatrix in="SourceAlpha" type="matrix" values="0 0 0 0 0 0 0 0 0 0 0 0 0 0 0 0 0 0 127 0" result="hardAlpha"/>
<feOffset dy="4"/>
<feGaussianBlur stdDeviation="2"/>
<feComposite in2="hardAlpha" operator="arithmetic" k2="-1" k3="1"/>
<feColorMatrix type="matrix" values="0 0 0 0 0 0 0 0 0 0 0 0 0 0 0 0 0 0 0.25 0"/>
<feBlend mode="normal" in2="shape" result="effect1_innerShadow_12_2"/>
</filter>
</defs>
</svg>
