<svg width="1874" height="449" viewBox="0 0 1874 449" fill="none" xmlns="http://www.w3.org/2000/svg">
<path d="M195.828 86H90.8281V213.2H201.228C223.228 213.2 242.228 209 258.228 200.6C274.228 191.8 282.228 175 282.228 150.2C283.028 122.6 274.428 105.2 256.428 98C238.828 90.4 218.628 86.6 195.828 86.6V86ZM0.228126 9.19997H197.028C197.428 9.59999 197.828 9.8 198.228 9.8C199.028 9.8 199.628 9.8 200.028 9.8C207.628 9.8 215.228 9.8 222.828 9.8C230.428 9.8 238.028 10.2 245.628 11C259.228 11.8 272.628 13.8 285.828 17C299.428 19.8 312.028 24.6 323.628 31.4C344.828 43.8 359.828 60.8 368.628 82.4C377.828 104 382.628 126.6 383.028 150.2C383.428 171.8 379.628 192.6 371.628 212.6C364.028 232.6 351.228 249.2 333.228 262.4C318.028 273.2 301.428 280.4 283.428 284C265.828 287.2 247.828 289.2 229.428 290C224.628 290 219.828 290 215.028 290C210.228 290 205.428 290 200.628 290L90.8281 289.4V440H0.228126V9.19997ZM523.541 159.8C520.741 170.6 518.741 181.6 517.541 192.8C516.341 203.6 515.741 214.4 515.741 225.2C515.741 236.4 516.341 247.6 517.541 258.8C519.141 269.6 521.141 280.2 523.541 290.6C527.941 309 535.141 325 545.141 338.6C555.541 352.2 569.941 362.2 588.341 368.6C595.141 371 602.341 372.8 609.941 374C617.541 375.2 625.141 375.8 632.741 375.8C640.341 375.8 647.941 375.2 655.541 374C663.141 372.8 670.341 371 677.141 368.6C695.541 362.2 709.941 352.2 720.341 338.6C730.741 325 737.941 309 741.941 290.6C744.341 280.2 746.141 269.6 747.341 258.8C748.941 247.6 749.741 236.4 749.741 225.2C749.741 214.4 748.941 203.6 747.341 192.8C746.141 181.6 744.341 170.8 741.941 160.4C737.941 142 730.741 126 720.341 112.4C709.941 98.4 695.541 88.4 677.141 82.4C670.341 80 663.141 78.2 655.541 77C647.941 75.8 640.341 75.2 632.741 75.2C625.141 75.2 617.541 75.8 609.941 77C602.341 78.2 595.141 80 588.341 82.4C569.941 88.8 555.741 98.8 545.741 112.4C535.741 126 528.341 142 523.541 160.4V159.8ZM429.941 129.2C440.341 97.6 455.541 72 475.541 52.4C495.941 32.4 522.541 18.2 555.341 9.8C567.341 6.99998 579.741 4.79998 592.541 3.19997C605.341 1.59997 618.141 0.799968 630.941 0.799968C644.541 0.399973 658.341 0.999978 672.341 2.59998C686.341 4.19998 699.741 6.79999 712.541 10.4C744.541 18.4 770.741 32.4 791.141 52.4C811.541 72.4 826.541 98.2 836.141 129.8C840.141 144.2 843.141 159.4 845.141 175.4C847.541 191.4 848.741 207.4 848.741 223.4C848.741 240.6 847.741 257.4 845.741 273.8C843.741 290.2 840.541 305.8 836.141 320.6C826.541 353 811.341 379.2 790.541 399.2C769.741 418.8 742.941 432.4 710.141 440C697.341 443.2 684.141 445.4 670.541 446.6C656.941 448.2 643.141 449 629.141 449C616.741 449 604.341 448.2 591.941 446.6C579.541 445 567.341 442.8 555.341 440C522.941 432.4 496.341 418.8 475.541 399.2C454.741 379.2 439.541 353 429.941 320.6C425.941 306.6 422.741 291.4 420.341 275C418.341 258.6 417.341 242 417.341 225.2C417.341 208.4 418.341 191.8 420.341 175.4C422.341 158.6 425.541 143.4 429.941 129.8V129.2ZM1005 440H910.203V9.19997H1005V440ZM1458.37 86H1234.57C1214.97 86.4 1198.37 90.6 1184.77 98.6C1171.57 106.2 1164.97 121 1164.97 143C1164.97 159.8 1170.57 171.8 1181.77 179C1193.37 186.2 1206.77 189.8 1221.97 189.8L1341.97 189.2C1346.37 189.6 1350.97 189.8 1355.77 189.8C1360.57 189.8 1365.37 190 1370.17 190.4C1384.17 191.2 1397.97 193.6 1411.57 197.6C1425.17 201.2 1437.17 208 1447.57 218C1457.17 226.8 1464.37 237.4 1469.17 249.8C1473.97 262.2 1476.97 275 1478.17 288.2C1478.57 292.2 1478.77 296.2 1478.77 300.2C1479.17 303.8 1479.37 307.6 1479.37 311.6C1478.57 361.6 1464.77 395.6 1437.97 413.6C1411.17 431.2 1374.77 440 1328.77 440H1087.57V363.2H1314.37C1334.37 363.6 1351.57 360.4 1365.97 353.6C1380.77 346.8 1386.77 331.4 1383.97 307.4C1381.97 288.6 1374.97 277 1362.97 272.6C1350.97 268.2 1336.77 265.8 1320.37 265.4L1213.57 264.8C1169.17 265.2 1133.97 256.4 1107.97 238.4C1082.37 220 1069.77 187 1070.17 139.4C1070.97 89.4 1084.77 55.4 1111.57 37.4C1138.77 19 1175.37 9.8 1221.37 9.8L1458.37 9.19997V86ZM1724.7 84.2C1691.5 84.6 1666.7 93.6 1650.3 111.2C1633.9 128.4 1624.7 153 1622.7 185L1873.5 184.4V259.4H1622.1C1622.1 274.6 1623.7 289.2 1626.9 303.2C1630.5 317.2 1637.5 330 1647.9 341.6C1657.1 352.4 1667.9 359.2 1680.3 362C1693.1 364.4 1706.1 365.6 1719.3 365.6C1720.1 365.6 1720.9 365.6 1721.7 365.6C1722.9 365.6 1723.9 365.6 1724.7 365.6L1873.5 365V440H1720.5C1696.1 440 1672.5 437.8 1649.7 433.4C1627.3 429 1606.1 418.8 1586.1 402.8C1562.1 383.2 1545.3 359.4 1535.7 331.4C1526.1 303 1520.9 274 1520.1 244.4C1519.7 238 1519.5 231.8 1519.5 225.8C1519.9 219.8 1520.3 213.8 1520.7 207.8C1525.1 139.8 1543.5 89.8 1575.9 57.8C1608.7 25.8 1657.7 9.8 1722.9 9.8L1873.5 9.19997V84.2H1724.7Z" fill="white"/>
</svg>
