<svg width="1500" height="1500" viewBox="0 0 1500 1500" fill="none" xmlns="http://www.w3.org/2000/svg">
<g filter="url(#filter0_i_12_3)">
<mask id="mask0_12_3" style="mask-type:alpha" maskUnits="userSpaceOnUse" x="100" y="0" width="1300" height="1500">
<path d="M750 0L1399.52 375V1125L750 1500L100.481 1125V375L750 0Z" fill="#FFC20F"/>
</mask>
<g mask="url(#mask0_12_3)">
<path d="M750 0L1399.52 375V1125L750 1500L100.481 1125V375L750 0Z" fill="#FFC20F"/>
<path d="M750 250L1183.01 500V1000L750 1250L316.987 1000V500L750 250Z" fill="black"/>
<path d="M750 500L966.506 625V875L750 1000L533.494 875V625L750 500Z" fill="#FFC20F"/>
<rect x="533.5" y="874" width="216.5" height="387" fill="#FFC20F"/>
<rect x="317" y="992" width="216" height="384" fill="black"/>
</g>
</g>
<defs>
<filter id="filter0_i_12_3" x="100.481" y="0" width="1299.04" height="1504" filterUnits="userSpaceOnUse" color-interpolation-filters="sRGB">
<feFlood flood-opacity="0" result="BackgroundImageFix"/>
<feBlend mode="normal" in="SourceGraphic" in2="BackgroundImageFix" result="shape"/>
<feColorMatrix in="SourceAlpha" type="matrix" values="0 0 0 0 0 0 0 0 0 0 0 0 0 0 0 0 0 0 127 0" result="hardAlpha"/>
<feOffset dy="4"/>
<feGaussianBlur stdDeviation="2"/>
<feComposite in2="hardAlpha" operator="arithmetic" k2="-1" k3="1"/>
<feColorMatrix type="matrix" values="0 0 0 0 0 0 0 0 0 0 0 0 0 0 0 0 0 0 0.25 0"/>
<feBlend mode="normal" in2="shape" result="effect1_innerShadow_12_3"/>
</filter>
</defs>
</svg>
